# xmcd CD database file
#
# Track frame offsets:
#	150
#	11766
#	22831
#	34029
#	47886
#	60165
#	72160
#	81436
#	93753
#	105141
#	119795
#	128950
#	142312
#	156222
#	173726
#
# Disc length: 2482 seconds
#
# Revision: 0
# Processed by: cddbd v1.4PL0 Copyright (c) Steve Scherf et al.
# Submitted via: CDex 1.50Beta6
#
DISCID=c209b00f
DTITLE=Freddie Fender - very best of Freddy Fender
DYEAR=1999
DGENRE=Country
TTITLE0=Before The Next Teardrop Falls
TTITLE1=The Chokin' Kind
TTITLE2=Just a Moment of Your Time
TTITLE3=Fannie Mae (duet with Tommy McClain)
TTITLE4=Wasted Days and Wasted Nights
TTITLE5=The Clock
TTITLE6=Please Mr. Sandman
TTITLE7=Vaya con dios
TTITLE8=It's Raining
TTITLE9=Roses are Red
TTITLE10=Breaking up is hard to do
TTITLE11=Oh Holy One
TTITLE12=These Arms of Mine
TTITLE13=Cowboy Peyton Place
TTITLE14=Squeeze Box
EXTD=YEAR: 1999
EXTT0=
EXTT1=
EXTT2=
EXTT3=
EXTT4=
EXTT5=
EXTT6=
EXTT7=
EXTT8=
EXTT9=
EXTT10=
EXTT11=
EXTT12=
EXTT13=
EXTT14=
PLAYORDER=
